# xmcd
#
# Track frame offsets: 
#        150
#        19472
#        36932
#        58350
#        79080
#        96922
#        129260
#        153482
#        166392
#
# Disc length: 2625 seconds
#
# Revision: 2
# Processed by: cddbd v1.4PL0 Copyright (c) Steve Scherf et al.
# Submitted via: ExactAudioCopy v0.90b3
#
DISCID=750a3f09
DTITLE=Thelonious Monk - Criss-Cross
DYEAR=1900
DGENRE=
TTITLE0=Hackensack
TTITLE1=Tea For Two
TTITLE2=Criss-Cross
TTITLE3=Eronel
TTITLE4=Rhythm-A-Ning
TTITLE5=Don't Blame Me
TTITLE6=Think Of One
TTITLE7=Crepuscule With Nellie
TTITLE8=Pannonica
EXTD=
EXTT0=
EXTT1=
EXTT2=
EXTT3=
EXTT4=
EXTT5=
EXTT6=
EXTT7=
EXTT8=
PLAYORDER=
